# https://github.com/mikedh/trimesh
v 0.00000000 0.00000000 0.00000000
v 0.01999997 0.00003491 0.00000000
v 0.01825763 0.00816448 0.00000000
v 0.01336011 0.01488312 0.00000000
v 0.00615378 0.01902974 0.00000000
v -0.00211603 0.01988775 0.00000000
v -0.01002015 0.01730886 0.00000000
v -0.01619264 0.01173875 0.00000000
v -0.01956681 0.00414002 0.00000000
v -0.01955956 -0.00417417 0.00000000
v -0.01617213 -0.01176700 0.00000000
v -0.00998992 -0.01732632 0.00000000
v -0.00208131 -0.01989141 0.00000000
v 0.00618698 -0.01901897 0.00000000
v 0.01338607 -0.01485978 0.00000000
v 0.01827186 -0.00813261 0.00000000
v 0.02000000 -0.00000000 0.00000000
v 0.03499995 0.00006109 0.00000000
v 0.03195086 0.01428785 0.00000000
v 0.02338020 0.02604546 0.00000000
v 0.01076911 0.03330205 0.00000000
v -0.00370304 0.03480356 0.00000000
v -0.01753526 0.03029051 0.00000000
v -0.02833712 0.02054282 0.00000000
v -0.03424192 0.00724504 0.00000000
v -0.03422923 -0.00730479 0.00000000
v -0.02830123 -0.02059225 0.00000000
v -0.01748236 -0.03032107 0.00000000
v -0.00364230 -0.03480997 0.00000000
v 0.01082721 -0.03328320 0.00000000
v 0.02342562 -0.02600462 0.00000000
v 0.03197575 -0.01423206 0.00000000
v 0.03500000 -0.00000000 0.00000000
v 0.04999992 0.00008727 0.00000000
v 0.04564408 0.02041121 0.00000000
v 0.03340029 0.03720781 0.00000000
v 0.01538444 0.04757435 0.00000000
v -0.00529006 0.04971936 0.00000000
v -0.02505037 0.04327215 0.00000000
v -0.04048160 0.02934689 0.00000000
v -0.04891704 0.01035005 0.00000000
v -0.04889890 -0.01043542 0.00000000
v -0.04043032 -0.02941750 0.00000000
v -0.02497480 -0.04331581 0.00000000
v -0.00520328 -0.04972852 0.00000000
v 0.01546745 -0.04754743 0.00000000
v 0.03346518 -0.03714945 0.00000000
v 0.04567964 -0.02033152 0.00000000
v 0.05000000 -0.00000000 0.00000000
f 1 2 3
f 1 3 4
f 1 4 5
f 1 5 6
f 1 6 7
f 1 7 8
f 1 8 9
f 1 9 10
f 1 10 11
f 1 11 12
f 1 12 13
f 1 13 14
f 1 14 15
f 1 15 16
f 1 16 17
f 2 18 3
f 18 19 3
f 3 19 4
f 19 20 4
f 4 20 5
f 20 21 5
f 5 21 6
f 21 22 6
f 6 22 7
f 22 23 7
f 7 23 8
f 23 24 8
f 8 24 9
f 24 25 9
f 9 25 10
f 25 26 10
f 10 26 11
f 26 27 11
f 11 27 12
f 27 28 12
f 12 28 13
f 28 29 13
f 13 29 14
f 29 30 14
f 14 30 15
f 30 31 15
f 15 31 16
f 31 32 16
f 16 32 17
f 32 33 17
f 18 34 19
f 34 35 19
f 19 35 20
f 35 36 20
f 20 36 21
f 36 37 21
f 21 37 22
f 37 38 22
f 22 38 23
f 38 39 23
f 23 39 24
f 39 40 24
f 24 40 25
f 40 41 25
f 25 41 26
f 41 42 26
f 26 42 27
f 42 43 27
f 27 43 28
f 43 44 28
f 28 44 29
f 44 45 29
f 29 45 30
f 45 46 30
f 30 46 31
f 46 47 31
f 31 47 32
f 47 48 32
f 32 48 33
f 48 49 33

