# https://github.com/mikedh/trimesh
v 0.00000000 0.00000000 0.00000000
v 0.04999992 0.00008727 0.00000000
v 0.04881285 0.01083079 0.00000000
v 0.04534460 0.02106817 0.00000000
v 0.03975726 0.03032096 0.00000000
v 0.03231194 0.03815676 0.00000000
v 0.02335659 0.04420938 0.00000000
v 0.01330972 0.04819597 0.00000000
v 0.00264084 0.04993021 0.00000000
v -0.00815145 0.04933106 0.00000000
v -0.01856280 0.04642653 0.00000000
v -0.02810666 0.04135234 0.00000000
v -0.03633700 0.03434563 0.00000000
v -0.04286921 0.02573385 0.00000000
v -0.04739801 0.01591944 0.00000000
v -0.04971176 0.00536108 0.00000000
v -0.04970233 -0.00544783 0.00000000
v -0.04737015 -0.01600214 0.00000000
v -0.04282423 -0.02580863 0.00000000
v -0.03627700 -0.03440900 0.00000000
v -0.02803444 -0.04140133 0.00000000
v -0.01848175 -0.04645885 0.00000000
v -0.00806534 -0.04934522 0.00000000
v 0.00272798 -0.04992553 0.00000000
v 0.01339381 -0.04817267 0.00000000
v 0.02343371 -0.04416855 0.00000000
v 0.03237849 -0.03810031 0.00000000
v 0.03981012 -0.03025152 0.00000000
v 0.04538130 -0.02098899 0.00000000
v 0.04883167 -0.01074558 0.00000000
v 0.05000000 -0.00000000 0.00000000
f 1 2 3
f 1 3 4
f 1 4 5
f 1 5 6
f 1 6 7
f 1 7 8
f 1 8 9
f 1 9 10
f 1 10 11
f 1 11 12
f 1 12 13
f 1 13 14
f 1 14 15
f 1 15 16
f 1 16 17
f 1 17 18
f 1 18 19
f 1 19 20
f 1 20 21
f 1 21 22
f 1 22 23
f 1 23 24
f 1 24 25
f 1 25 26
f 1 26 27
f 1 27 28
f 1 28 29
f 1 29 30
f 1 30 31

