# https://github.com/mikedh/trimesh
v 0.00000000 0.00000000 0.00000000
v 0.00833332 0.00001454 0.00000000
v 0.00760735 0.00340187 0.00000000
v 0.00556671 0.00620130 0.00000000
v 0.00256407 0.00792906 0.00000000
v -0.00088168 0.00828656 0.00000000
v -0.00417506 0.00721203 0.00000000
v -0.00674693 0.00489115 0.00000000
v -0.00815284 0.00172501 0.00000000
v -0.00814982 -0.00173924 0.00000000
v -0.00673839 -0.00490292 0.00000000
v -0.00416247 -0.00721930 0.00000000
v -0.00086721 -0.00828809 0.00000000
v 0.00257791 -0.00792457 0.00000000
v 0.00557753 -0.00619158 0.00000000
v 0.00761327 -0.00338859 0.00000000
v 0.00833333 -0.00000000 0.00000000
v 0.01666664 0.00002909 0.00000000
v 0.01521469 0.00680374 0.00000000
v 0.01113343 0.01240260 0.00000000
v 0.00512815 0.01585812 0.00000000
v -0.00176335 0.01657312 0.00000000
v -0.00835012 0.01442405 0.00000000
v -0.01349387 0.00978230 0.00000000
v -0.01630568 0.00345002 0.00000000
v -0.01629963 -0.00347847 0.00000000
v -0.01347677 -0.00980583 0.00000000
v -0.00832493 -0.01443860 0.00000000
v -0.00173443 -0.01657617 0.00000000
v 0.00515582 -0.01584914 0.00000000
v 0.01115506 -0.01238315 0.00000000
v 0.01522655 -0.00677717 0.00000000
v 0.01666667 -0.00000000 0.00000000
v 0.02499996 0.00004363 0.00000000
v 0.02282204 0.01020561 0.00000000
v 0.01670014 0.01860390 0.00000000
v 0.00769222 0.02378718 0.00000000
v -0.00264503 0.02485968 0.00000000
v -0.01252518 0.02163608 0.00000000
v -0.02024080 0.01467344 0.00000000
v -0.02445852 0.00517503 0.00000000
v -0.02444945 -0.00521771 0.00000000
v -0.02021516 -0.01470875 0.00000000
v -0.01248740 -0.02165790 0.00000000
v -0.00260164 -0.02486426 0.00000000
v 0.00773372 -0.02377371 0.00000000
v 0.01673259 -0.01857473 0.00000000
v 0.02283982 -0.01016576 0.00000000
v 0.02500000 -0.00000000 0.00000000
v 0.03333328 0.00005818 0.00000000
v 0.03042939 0.01360747 0.00000000
v 0.02226686 0.02480520 0.00000000
v 0.01025629 0.03171624 0.00000000
v -0.00352671 0.03314624 0.00000000
v -0.01670024 0.02884810 0.00000000
v -0.02698774 0.01956459 0.00000000
v -0.03261136 0.00690004 0.00000000
v -0.03259926 -0.00695694 0.00000000
v -0.02695355 -0.01961166 0.00000000
v -0.01664987 -0.02887720 0.00000000
v -0.00346885 -0.03315235 0.00000000
v 0.01031163 -0.03169829 0.00000000
v 0.02231012 -0.02476630 0.00000000
v 0.03045309 -0.01355434 0.00000000
v 0.03333333 -0.00000000 0.00000000
v 0.04166660 0.00007272 0.00000000
v 0.03803674 0.01700934 0.00000000
v 0.02783357 0.03100650 0.00000000
v 0.01282037 0.03964529 0.00000000
v -0.00440839 0.04143280 0.00000000
v -0.02087531 0.03606013 0.00000000
v -0.03373467 0.02445574 0.00000000
v -0.04076420 0.00862505 0.00000000
v -0.04074908 -0.00869618 0.00000000
v -0.03369194 -0.02451458 0.00000000
v -0.02081234 -0.03609651 0.00000000
v -0.00433607 -0.04144043 0.00000000
v 0.01288954 -0.03962286 0.00000000
v 0.02788765 -0.03095788 0.00000000
v 0.03806637 -0.01694293 0.00000000
v 0.04166667 -0.00000000 0.00000000
v 0.04999992 0.00008727 0.00000000
v 0.04564408 0.02041121 0.00000000
v 0.03340029 0.03720781 0.00000000
v 0.01538444 0.04757435 0.00000000
v -0.00529006 0.04971936 0.00000000
v -0.02505037 0.04327215 0.00000000
v -0.04048160 0.02934689 0.00000000
v -0.04891704 0.01035005 0.00000000
v -0.04889890 -0.01043542 0.00000000
v -0.04043032 -0.02941750 0.00000000
v -0.02497480 -0.04331581 0.00000000
v -0.00520328 -0.04972852 0.00000000
v 0.01546745 -0.04754743 0.00000000
v 0.03346518 -0.03714945 0.00000000
v 0.04567964 -0.02033152 0.00000000
v 0.05000000 -0.00000000 0.00000000
f 1 2 3
f 1 3 4
f 1 4 5
f 1 5 6
f 1 6 7
f 1 7 8
f 1 8 9
f 1 9 10
f 1 10 11
f 1 11 12
f 1 12 13
f 1 13 14
f 1 14 15
f 1 15 16
f 1 16 17
f 2 18 3
f 18 19 3
f 3 19 4
f 19 20 4
f 4 20 5
f 20 21 5
f 5 21 6
f 21 22 6
f 6 22 7
f 22 23 7
f 7 23 8
f 23 24 8
f 8 24 9
f 24 25 9
f 9 25 10
f 25 26 10
f 10 26 11
f 26 27 11
f 11 27 12
f 27 28 12
f 12 28 13
f 28 29 13
f 13 29 14
f 29 30 14
f 14 30 15
f 30 31 15
f 15 31 16
f 31 32 16
f 16 32 17
f 32 33 17
f 18 34 19
f 34 35 19
f 19 35 20
f 35 36 20
f 20 36 21
f 36 37 21
f 21 37 22
f 37 38 22
f 22 38 23
f 38 39 23
f 23 39 24
f 39 40 24
f 24 40 25
f 40 41 25
f 25 41 26
f 41 42 26
f 26 42 27
f 42 43 27
f 27 43 28
f 43 44 28
f 28 44 29
f 44 45 29
f 29 45 30
f 45 46 30
f 30 46 31
f 46 47 31
f 31 47 32
f 47 48 32
f 32 48 33
f 48 49 33
f 34 50 35
f 50 51 35
f 35 51 36
f 51 52 36
f 36 52 37
f 52 53 37
f 37 53 38
f 53 54 38
f 38 54 39
f 54 55 39
f 39 55 40
f 55 56 40
f 40 56 41
f 56 57 41
f 41 57 42
f 57 58 42
f 42 58 43
f 58 59 43
f 43 59 44
f 59 60 44
f 44 60 45
f 60 61 45
f 45 61 46
f 61 62 46
f 46 62 47
f 62 63 47
f 47 63 48
f 63 64 48
f 48 64 49
f 64 65 49
f 50 66 51
f 66 67 51
f 51 67 52
f 67 68 52
f 52 68 53
f 68 69 53
f 53 69 54
f 69 70 54
f 54 70 55
f 70 71 55
f 55 71 56
f 71 72 56
f 56 72 57
f 72 73 57
f 57 73 58
f 73 74 58
f 58 74 59
f 74 75 59
f 59 75 60
f 75 76 60
f 60 76 61
f 76 77 61
f 61 77 62
f 77 78 62
f 62 78 63
f 78 79 63
f 63 79 64
f 79 80 64
f 64 80 65
f 80 81 65
f 66 82 67
f 82 83 67
f 67 83 68
f 83 84 68
f 68 84 69
f 84 85 69
f 69 85 70
f 85 86 70
f 70 86 71
f 86 87 71
f 71 87 72
f 87 88 72
f 72 88 73
f 88 89 73
f 73 89 74
f 89 90 74
f 74 90 75
f 90 91 75
f 75 91 76
f 91 92 76
f 76 92 77
f 92 93 77
f 77 93 78
f 93 94 78
f 78 94 79
f 94 95 79
f 79 95 80
f 95 96 80
f 80 96 81
f 96 97 81

