# https://github.com/mikedh/trimesh
v 0.00000000 0.00000000 0.00000000
v 0.01666664 0.00002909 0.00000000
v 0.01037199 0.01304606 0.00000000
v -0.00372894 0.01624416 0.00000000
v -0.01502335 0.00721642 0.00000000
v -0.01501073 -0.00724263 0.00000000
v -0.00370058 -0.01625065 0.00000000
v 0.01039475 -0.01302793 0.00000000
v 0.01666667 -0.00000000 0.00000000
v 0.03333328 0.00005818 0.00000000
v 0.02074398 0.02609211 0.00000000
v -0.00745787 0.03248832 0.00000000
v -0.03004670 0.01443283 0.00000000
v -0.03002147 -0.01448525 0.00000000
v -0.00740116 -0.03250129 0.00000000
v 0.02078949 -0.02605587 0.00000000
v 0.03333333 -0.00000000 0.00000000
v 0.04999992 0.00008727 0.00000000
v 0.03111597 0.03913817 0.00000000
v -0.01118681 0.04873249 0.00000000
v -0.04507006 0.02164925 0.00000000
v -0.04503220 -0.02172788 0.00000000
v -0.01110174 -0.04875194 0.00000000
v 0.03118424 -0.03908380 0.00000000
v 0.05000000 -0.00000000 0.00000000
f 1 2 3
f 1 3 4
f 1 4 5
f 1 5 6
f 1 6 7
f 1 7 8
f 1 8 9
f 2 10 3
f 10 11 3
f 3 11 4
f 11 12 4
f 4 12 5
f 12 13 5
f 5 13 6
f 13 14 6
f 6 14 7
f 14 15 7
f 7 15 8
f 15 16 8
f 8 16 9
f 16 17 9
f 10 18 11
f 18 19 11
f 11 19 12
f 19 20 12
f 12 20 13
f 20 21 13
f 13 21 14
f 21 22 14
f 14 22 15
f 22 23 15
f 15 23 16
f 23 24 16
f 16 24 17
f 24 25 17

