# https://github.com/mikedh/trimesh
v 0.00000000 0.00000000 0.00000000
v 0.01666664 0.00002909 0.00000000
v 0.01500441 0.00725572 0.00000000
v 0.01037199 0.01304606 0.00000000
v 0.00368640 0.01625387 0.00000000
v -0.00372894 0.01624416 0.00000000
v -0.01040611 0.01301886 0.00000000
v -0.01502335 0.00721642 0.00000000
v -0.01666666 -0.00001454 0.00000000
v -0.01501073 -0.00724263 0.00000000
v -0.01038337 -0.01303700 0.00000000
v -0.00370058 -0.01625065 0.00000000
v 0.00371476 -0.01624741 0.00000000
v 0.01039475 -0.01302793 0.00000000
v 0.01501705 -0.00722952 0.00000000
v 0.01666667 -0.00000000 0.00000000
v 0.03333328 0.00005818 0.00000000
v 0.03000882 0.01451144 0.00000000
v 0.02074398 0.02609211 0.00000000
v 0.00737279 0.03250774 0.00000000
v -0.00745787 0.03248832 0.00000000
v -0.02081222 0.02603771 0.00000000
v -0.03004670 0.01443283 0.00000000
v -0.03333332 -0.00002909 0.00000000
v -0.03002147 -0.01448525 0.00000000
v -0.02076674 -0.02607400 0.00000000
v -0.00740116 -0.03250129 0.00000000
v 0.00742952 -0.03249482 0.00000000
v 0.02078949 -0.02605587 0.00000000
v 0.03003410 -0.01445905 0.00000000
v 0.03333333 -0.00000000 0.00000000
v 0.04999992 0.00008727 0.00000000
v 0.04501323 0.02176717 0.00000000
v 0.03111597 0.03913817 0.00000000
v 0.01105919 0.04876161 0.00000000
v -0.01118681 0.04873249 0.00000000
v -0.03121833 0.03905657 0.00000000
v -0.04507006 0.02164925 0.00000000
v -0.04999998 -0.00004363 0.00000000
v -0.04503220 -0.02172788 0.00000000
v -0.03115012 -0.03911100 0.00000000
v -0.01110174 -0.04875194 0.00000000
v 0.01114428 -0.04874223 0.00000000
v 0.03118424 -0.03908380 0.00000000
v 0.04505115 -0.02168857 0.00000000
v 0.05000000 -0.00000000 0.00000000
f 1 2 3
f 1 3 4
f 1 4 5
f 1 5 6
f 1 6 7
f 1 7 8
f 1 8 9
f 1 9 10
f 1 10 11
f 1 11 12
f 1 12 13
f 1 13 14
f 1 14 15
f 1 15 16
f 2 17 3
f 17 18 3
f 3 18 4
f 18 19 4
f 4 19 5
f 19 20 5
f 5 20 6
f 20 21 6
f 6 21 7
f 21 22 7
f 7 22 8
f 22 23 8
f 8 23 9
f 23 24 9
f 9 24 10
f 24 25 10
f 10 25 11
f 25 26 11
f 11 26 12
f 26 27 12
f 12 27 13
f 27 28 13
f 13 28 14
f 28 29 14
f 14 29 15
f 29 30 15
f 15 30 16
f 30 31 16
f 17 32 18
f 32 33 18
f 18 33 19
f 33 34 19
f 19 34 20
f 34 35 20
f 20 35 21
f 35 36 21
f 21 36 22
f 36 37 22
f 22 37 23
f 37 38 23
f 23 38 24
f 38 39 24
f 24 39 25
f 39 40 25
f 25 40 26
f 40 41 26
f 26 41 27
f 41 42 27
f 27 42 28
f 42 43 28
f 28 43 29
f 43 44 29
f 29 44 30
f 44 45 30
f 30 45 31
f 45 46 31

