# https://github.com/mikedh/trimesh
v 0.00000000 0.00000000 0.00000000
v 0.00820673 0.00144707 0.00000000
v 0.00696240 0.00457924 0.00000000
v 0.00457924 0.00696240 0.00000000
v 0.00144707 0.00820673 0.00000000
v -0.00192180 0.00810871 0.00000000
v -0.00497632 0.00668436 0.00000000
v -0.00721688 0.00416667 0.00000000
v -0.00827699 0.00096744 0.00000000
v -0.00798325 -0.00239003 0.00000000
v -0.00638370 -0.00535656 0.00000000
v -0.00373999 -0.00744694 0.00000000
v -0.00048454 -0.00831923 0.00000000
v 0.00285017 -0.00783077 0.00000000
v 0.00571868 -0.00606145 0.00000000
v 0.00765180 -0.00330066 0.00000000
v 0.00833333 -0.00000000 0.00000000
v 0.01641346 0.00289414 0.00000000
v 0.01392480 0.00915848 0.00000000
v 0.00915848 0.01392480 0.00000000
v 0.00289414 0.01641346 0.00000000
v -0.00384360 0.01621741 0.00000000
v -0.00995264 0.01336872 0.00000000
v -0.01443376 0.00833333 0.00000000
v -0.01655397 0.00193488 0.00000000
v -0.01596649 -0.00478005 0.00000000
v -0.01276741 -0.01071313 0.00000000
v -0.00747999 -0.01489388 0.00000000
v -0.00096908 -0.01663847 0.00000000
v 0.00570034 -0.01566154 0.00000000
v 0.01143736 -0.01212289 0.00000000
v 0.01530360 -0.00660133 0.00000000
v 0.01666667 -0.00000000 0.00000000
v 0.02462019 0.00434120 0.00000000
v 0.02088720 0.01373772 0.00000000
v 0.01373772 0.02088720 0.00000000
v 0.00434120 0.02462019 0.00000000
v -0.00576540 0.02432612 0.00000000
v -0.01492896 0.02005308 0.00000000
v -0.02165064 0.01250000 0.00000000
v -0.02483096 0.00290232 0.00000000
v -0.02394974 -0.00717008 0.00000000
v -0.01915111 -0.01606969 0.00000000
v -0.01121998 -0.02234082 0.00000000
v -0.00145362 -0.02495770 0.00000000
v 0.00855050 -0.02349232 0.00000000
v 0.01715604 -0.01818434 0.00000000
v 0.02295540 -0.00990199 0.00000000
v 0.02500000 -0.00000000 0.00000000
v 0.03282693 0.00578827 0.00000000
v 0.02784959 0.01831697 0.00000000
v 0.01831697 0.02784959 0.00000000
v 0.00578827 0.03282693 0.00000000
v -0.00768720 0.03243483 0.00000000
v -0.01990529 0.02673744 0.00000000
v -0.02886751 0.01666667 0.00000000
v -0.03310795 0.00386976 0.00000000
v -0.03193298 -0.00956011 0.00000000
v -0.02553481 -0.02142625 0.00000000
v -0.01495997 -0.02978775 0.00000000
v -0.00193816 -0.03327694 0.00000000
v 0.01140067 -0.03132309 0.00000000
v 0.02287472 -0.02424579 0.00000000
v 0.03060720 -0.01320266 0.00000000
v 0.03333333 -0.00000000 0.00000000
v 0.04103366 0.00723534 0.00000000
v 0.03481199 0.02289621 0.00000000
v 0.02289621 0.03481199 0.00000000
v 0.00723534 0.04103366 0.00000000
v -0.00960899 0.04054354 0.00000000
v -0.02488161 0.03342180 0.00000000
v -0.03608439 0.02083333 0.00000000
v -0.04138493 0.00483720 0.00000000
v -0.03991623 -0.01195013 0.00000000
v -0.03191852 -0.02678282 0.00000000
v -0.01869997 -0.03723469 0.00000000
v -0.00242270 -0.04159617 0.00000000
v 0.01425084 -0.03915386 0.00000000
v 0.02859340 -0.03030724 0.00000000
v 0.03825900 -0.01650332 0.00000000
v 0.04166667 -0.00000000 0.00000000
v 0.04924039 0.00868241 0.00000000
v 0.04177439 0.02747545 0.00000000
v 0.02747545 0.04177439 0.00000000
v 0.00868241 0.04924039 0.00000000
v -0.01153079 0.04865224 0.00000000
v -0.02985793 0.04010616 0.00000000
v -0.04330127 0.02500000 0.00000000
v -0.04966192 0.00580465 0.00000000
v -0.04789948 -0.01434016 0.00000000
v -0.03830222 -0.03213938 0.00000000
v -0.02243996 -0.04468163 0.00000000
v -0.00290724 -0.04991541 0.00000000
v 0.01710101 -0.04698463 0.00000000
v 0.03431208 -0.03636868 0.00000000
v 0.04591081 -0.01980399 0.00000000
v 0.05000000 -0.00000000 0.00000000
f 1 2 3
f 1 3 4
f 1 4 5
f 1 5 6
f 1 6 7
f 1 7 8
f 1 8 9
f 1 9 10
f 1 10 11
f 1 11 12
f 1 12 13
f 1 13 14
f 1 14 15
f 1 15 16
f 1 16 17
f 2 18 3
f 18 19 3
f 3 19 4
f 19 20 4
f 4 20 5
f 20 21 5
f 5 21 6
f 21 22 6
f 6 22 7
f 22 23 7
f 7 23 8
f 23 24 8
f 8 24 9
f 24 25 9
f 9 25 10
f 25 26 10
f 10 26 11
f 26 27 11
f 11 27 12
f 27 28 12
f 12 28 13
f 28 29 13
f 13 29 14
f 29 30 14
f 14 30 15
f 30 31 15
f 15 31 16
f 31 32 16
f 16 32 17
f 32 33 17
f 18 34 19
f 34 35 19
f 19 35 20
f 35 36 20
f 20 36 21
f 36 37 21
f 21 37 22
f 37 38 22
f 22 38 23
f 38 39 23
f 23 39 24
f 39 40 24
f 24 40 25
f 40 41 25
f 25 41 26
f 41 42 26
f 26 42 27
f 42 43 27
f 27 43 28
f 43 44 28
f 28 44 29
f 44 45 29
f 29 45 30
f 45 46 30
f 30 46 31
f 46 47 31
f 31 47 32
f 47 48 32
f 32 48 33
f 48 49 33
f 34 50 35
f 50 51 35
f 35 51 36
f 51 52 36
f 36 52 37
f 52 53 37
f 37 53 38
f 53 54 38
f 38 54 39
f 54 55 39
f 39 55 40
f 55 56 40
f 40 56 41
f 56 57 41
f 41 57 42
f 57 58 42
f 42 58 43
f 58 59 43
f 43 59 44
f 59 60 44
f 44 60 45
f 60 61 45
f 45 61 46
f 61 62 46
f 46 62 47
f 62 63 47
f 47 63 48
f 63 64 48
f 48 64 49
f 64 65 49
f 50 66 51
f 66 67 51
f 51 67 52
f 67 68 52
f 52 68 53
f 68 69 53
f 53 69 54
f 69 70 54
f 54 70 55
f 70 71 55
f 55 71 56
f 71 72 56
f 56 72 57
f 72 73 57
f 57 73 58
f 73 74 58
f 58 74 59
f 74 75 59
f 59 75 60
f 75 76 60
f 60 76 61
f 76 77 61
f 61 77 62
f 77 78 62
f 62 78 63
f 78 79 63
f 63 79 64
f 79 80 64
f 64 80 65
f 80 81 65
f 66 82 67
f 82 83 67
f 67 83 68
f 83 84 68
f 68 84 69
f 84 85 69
f 69 85 70
f 85 86 70
f 70 86 71
f 86 87 71
f 71 87 72
f 87 88 72
f 72 88 73
f 88 89 73
f 73 89 74
f 89 90 74
f 74 90 75
f 90 91 75
f 75 91 76
f 91 92 76
f 76 92 77
f 92 93 77
f 77 93 78
f 93 94 78
f 78 94 79
f 94 95 79
f 79 95 80
f 95 96 80
f 80 96 81
f 96 97 81

