# https://github.com/mikedh/trimesh
v 0.00000000 0.00000000 0.00000000
v 0.04999992 0.00008727 0.00000000
v 0.04812328 0.01357020 0.00000000
v 0.04267952 0.02604724 0.00000000
v 0.03407216 0.03659355 0.00000000
v 0.02293922 0.04442738 0.00000000
v 0.01010592 0.04896805 0.00000000
v -0.00347647 0.04987900 0.00000000
v -0.01680117 0.04709268 0.00000000
v -0.02888049 0.04081565 0.00000000
v -0.03881907 0.03151317 0.00000000
v -0.04588019 0.01987480 0.00000000
v -0.04954048 0.00676322 0.00000000
v -0.04952860 -0.00684968 0.00000000
v -0.04584544 -0.01995485 0.00000000
v -0.03876401 -0.03158088 0.00000000
v -0.02880921 -0.04086599 0.00000000
v -0.01671895 -0.04712193 0.00000000
v -0.00338941 -0.04988499 0.00000000
v 0.01019137 -0.04895034 0.00000000
v 0.02301673 -0.04438728 0.00000000
v 0.03413598 -0.03653403 0.00000000
v 0.04272491 -0.02597271 0.00000000
v 0.04814689 -0.01348619 0.00000000
v 0.05000000 -0.00000000 0.00000000
f 1 2 3
f 1 3 4
f 1 4 5
f 1 5 6
f 1 6 7
f 1 7 8
f 1 8 9
f 1 9 10
f 1 10 11
f 1 11 12
f 1 12 13
f 1 13 14
f 1 14 15
f 1 15 16
f 1 16 17
f 1 17 18
f 1 18 19
f 1 19 20
f 1 20 21
f 1 21 22
f 1 22 23
f 1 23 24
f 1 24 25

