# https://github.com/mikedh/trimesh
v 0.00000000 0.00000000 0.00050000
v 0.00000000 0.00000000 -0.00050000
v 0.05000000 0.00000000 0.00050000
v 0.04975924 0.00490086 0.00050000
v 0.04903926 0.00975452 0.00050000
v 0.04784702 0.01451423 0.00050000
v 0.04619398 0.01913417 0.00050000
v 0.04409606 0.02356984 0.00050000
v 0.04157348 0.02777851 0.00050000
v 0.03865052 0.03171966 0.00050000
v 0.03535534 0.03535534 0.00050000
v 0.03171966 0.03865052 0.00050000
v 0.02777851 0.04157348 0.00050000
v 0.02356984 0.04409606 0.00050000
v 0.01913417 0.04619398 0.00050000
v 0.01451423 0.04784702 0.00050000
v 0.00975452 0.04903926 0.00050000
v 0.00490086 0.04975924 0.00050000
v 0.00000000 0.05000000 0.00050000
v -0.00490086 0.04975924 0.00050000
v -0.00975452 0.04903926 0.00050000
v -0.01451423 0.04784702 0.00050000
v -0.01913417 0.04619398 0.00050000
v -0.02356984 0.04409606 0.00050000
v -0.02777851 0.04157348 0.00050000
v -0.03171966 0.03865052 0.00050000
v -0.03535534 0.03535534 0.00050000
v -0.03865052 0.03171966 0.00050000
v -0.04157348 0.02777851 0.00050000
v -0.04409606 0.02356984 0.00050000
v -0.04619398 0.01913417 0.00050000
v -0.04784702 0.01451423 0.00050000
v -0.04903926 0.00975452 0.00050000
v -0.04975924 0.00490086 0.00050000
v -0.05000000 0.00000000 0.00050000
v -0.04975924 -0.00490086 0.00050000
v -0.04903926 -0.00975452 0.00050000
v -0.04784702 -0.01451423 0.00050000
v -0.04619398 -0.01913417 0.00050000
v -0.04409606 -0.02356984 0.00050000
v -0.04157348 -0.02777851 0.00050000
v -0.03865052 -0.03171966 0.00050000
v -0.03535534 -0.03535534 0.00050000
v -0.03171966 -0.03865052 0.00050000
v -0.02777851 -0.04157348 0.00050000
v -0.02356984 -0.04409606 0.00050000
v -0.01913417 -0.04619398 0.00050000
v -0.01451423 -0.04784702 0.00050000
v -0.00975452 -0.04903926 0.00050000
v -0.00490086 -0.04975924 0.00050000
v -0.00000000 -0.05000000 0.00050000
v 0.00490086 -0.04975924 0.00050000
v 0.00975452 -0.04903926 0.00050000
v 0.01451423 -0.04784702 0.00050000
v 0.01913417 -0.04619398 0.00050000
v 0.02356984 -0.04409606 0.00050000
v 0.02777851 -0.04157348 0.00050000
v 0.03171966 -0.03865052 0.00050000
v 0.03535534 -0.03535534 0.00050000
v 0.03865052 -0.03171966 0.00050000
v 0.04157348 -0.02777851 0.00050000
v 0.04409606 -0.02356984 0.00050000
v 0.04619398 -0.01913417 0.00050000
v 0.04784702 -0.01451423 0.00050000
v 0.04903926 -0.00975452 0.00050000
v 0.04975924 -0.00490086 0.00050000
v 0.05000000 0.00000000 0.00050000
v 0.05000000 0.00000000 -0.00050000
v 0.04975924 0.00490086 -0.00050000
v 0.04903926 0.00975452 -0.00050000
v 0.04784702 0.01451423 -0.00050000
v 0.04619398 0.01913417 -0.00050000
v 0.04409606 0.02356984 -0.00050000
v 0.04157348 0.02777851 -0.00050000
v 0.03865052 0.03171966 -0.00050000
v 0.03535534 0.03535534 -0.00050000
v 0.03171966 0.03865052 -0.00050000
v 0.02777851 0.04157348 -0.00050000
v 0.02356984 0.04409606 -0.00050000
v 0.01913417 0.04619398 -0.00050000
v 0.01451423 0.04784702 -0.00050000
v 0.00975452 0.04903926 -0.00050000
v 0.00490086 0.04975924 -0.00050000
v 0.00000000 0.05000000 -0.00050000
v -0.00490086 0.04975924 -0.00050000
v -0.00975452 0.04903926 -0.00050000
v -0.01451423 0.04784702 -0.00050000
v -0.01913417 0.04619398 -0.00050000
v -0.02356984 0.04409606 -0.00050000
v -0.02777851 0.04157348 -0.00050000
v -0.03171966 0.03865052 -0.00050000
v -0.03535534 0.03535534 -0.00050000
v -0.03865052 0.03171966 -0.00050000
v -0.04157348 0.02777851 -0.00050000
v -0.04409606 0.02356984 -0.00050000
v -0.04619398 0.01913417 -0.00050000
v -0.04784702 0.01451423 -0.00050000
v -0.04903926 0.00975452 -0.00050000
v -0.04975924 0.00490086 -0.00050000
v -0.05000000 0.00000000 -0.00050000
v -0.04975924 -0.00490086 -0.00050000
v -0.04903926 -0.00975452 -0.00050000
v -0.04784702 -0.01451423 -0.00050000
v -0.04619398 -0.01913417 -0.00050000
v -0.04409606 -0.02356984 -0.00050000
v -0.04157348 -0.02777851 -0.00050000
v -0.03865052 -0.03171966 -0.00050000
v -0.03535534 -0.03535534 -0.00050000
v -0.03171966 -0.03865052 -0.00050000
v -0.02777851 -0.04157348 -0.00050000
v -0.02356984 -0.04409606 -0.00050000
v -0.01913417 -0.04619398 -0.00050000
v -0.01451423 -0.04784702 -0.00050000
v -0.00975452 -0.04903926 -0.00050000
v -0.00490086 -0.04975924 -0.00050000
v -0.00000000 -0.05000000 -0.00050000
v 0.00490086 -0.04975924 -0.00050000
v 0.00975452 -0.04903926 -0.00050000
v 0.01451423 -0.04784702 -0.00050000
v 0.01913417 -0.04619398 -0.00050000
v 0.02356984 -0.04409606 -0.00050000
v 0.02777851 -0.04157348 -0.00050000
v 0.03171966 -0.03865052 -0.00050000
v 0.03535534 -0.03535534 -0.00050000
v 0.03865052 -0.03171966 -0.00050000
v 0.04157348 -0.02777851 -0.00050000
v 0.04409606 -0.02356984 -0.00050000
v 0.04619398 -0.01913417 -0.00050000
v 0.04784702 -0.01451423 -0.00050000
v 0.04903926 -0.00975452 -0.00050000
v 0.04975924 -0.00490086 -0.00050000
v 0.05000000 0.00000000 -0.00050000
f 1 3 4
f 1 4 5
f 1 5 6
f 1 6 7
f 1 7 8
f 1 8 9
f 1 9 10
f 1 10 11
f 1 11 12
f 1 12 13
f 1 13 14
f 1 14 15
f 1 15 16
f 1 16 17
f 1 17 18
f 1 18 19
f 1 19 20
f 1 20 21
f 1 21 22
f 1 22 23
f 1 23 24
f 1 24 25
f 1 25 26
f 1 26 27
f 1 27 28
f 1 28 29
f 1 29 30
f 1 30 31
f 1 31 32
f 1 32 33
f 1 33 34
f 1 34 35
f 1 35 36
f 1 36 37
f 1 37 38
f 1 38 39
f 1 39 40
f 1 40 41
f 1 41 42
f 1 42 43
f 1 43 44
f 1 44 45
f 1 45 46
f 1 46 47
f 1 47 48
f 1 48 49
f 1 49 50
f 1 50 51
f 1 51 52
f 1 52 53
f 1 53 54
f 1 54 55
f 1 55 56
f 1 56 57
f 1 57 58
f 1 58 59
f 1 59 60
f 1 60 61
f 1 61 62
f 1 62 63
f 1 63 64
f 1 64 65
f 1 65 66
f 1 66 67
f 2 69 68
f 2 70 69
f 2 71 70
f 2 72 71
f 2 73 72
f 2 74 73
f 2 75 74
f 2 76 75
f 2 77 76
f 2 78 77
f 2 79 78
f 2 80 79
f 2 81 80
f 2 82 81
f 2 83 82
f 2 84 83
f 2 85 84
f 2 86 85
f 2 87 86
f 2 88 87
f 2 89 88
f 2 90 89
f 2 91 90
f 2 92 91
f 2 93 92
f 2 94 93
f 2 95 94
f 2 96 95
f 2 97 96
f 2 98 97
f 2 99 98
f 2 100 99
f 2 101 100
f 2 102 101
f 2 103 102
f 2 104 103
f 2 105 104
f 2 106 105
f 2 107 106
f 2 108 107
f 2 109 108
f 2 110 109
f 2 111 110
f 2 112 111
f 2 113 112
f 2 114 113
f 2 115 114
f 2 116 115
f 2 117 116
f 2 118 117
f 2 119 118
f 2 120 119
f 2 121 120
f 2 122 121
f 2 123 122
f 2 124 123
f 2 125 124
f 2 126 125
f 2 127 126
f 2 128 127
f 2 129 128
f 2 130 129
f 2 131 130
f 2 132 131
f 3 68 69
f 3 69 4
f 4 69 70
f 4 70 5
f 5 70 71
f 5 71 6
f 6 71 72
f 6 72 7
f 7 72 73
f 7 73 8
f 8 73 74
f 8 74 9
f 9 74 75
f 9 75 10
f 10 75 76
f 10 76 11
f 11 76 77
f 11 77 12
f 12 77 78
f 12 78 13
f 13 78 79
f 13 79 14
f 14 79 80
f 14 80 15
f 15 80 81
f 15 81 16
f 16 81 82
f 16 82 17
f 17 82 83
f 17 83 18
f 18 83 84
f 18 84 19
f 19 84 85
f 19 85 20
f 20 85 86
f 20 86 21
f 21 86 87
f 21 87 22
f 22 87 88
f 22 88 23
f 23 88 89
f 23 89 24
f 24 89 90
f 24 90 25
f 25 90 91
f 25 91 26
f 26 91 92
f 26 92 27
f 27 92 93
f 27 93 28
f 28 93 94
f 28 94 29
f 29 94 95
f 29 95 30
f 30 95 96
f 30 96 31
f 31 96 97
f 31 97 32
f 32 97 98
f 32 98 33
f 33 98 99
f 33 99 34
f 34 99 100
f 34 100 35
f 35 100 101
f 35 101 36
f 36 101 102
f 36 102 37
f 37 102 103
f 37 103 38
f 38 103 104
f 38 104 39
f 39 104 105
f 39 105 40
f 40 105 106
f 40 106 41
f 41 106 107
f 41 107 42
f 42 107 108
f 42 108 43
f 43 108 109
f 43 109 44
f 44 109 110
f 44 110 45
f 45 110 111
f 45 111 46
f 46 111 112
f 46 112 47
f 47 112 113
f 47 113 48
f 48 113 114
f 48 114 49
f 49 114 115
f 49 115 50
f 50 115 116
f 50 116 51
f 51 116 117
f 51 117 52
f 52 117 118
f 52 118 53
f 53 118 119
f 53 119 54
f 54 119 120
f 54 120 55
f 55 120 121
f 55 121 56
f 56 121 122
f 56 122 57
f 57 122 123
f 57 123 58
f 58 123 124
f 58 124 59
f 59 124 125
f 59 125 60
f 60 125 126
f 60 126 61
f 61 126 127
f 61 127 62
f 62 127 128
f 62 128 63
f 63 128 129
f 63 129 64
f 64 129 130
f 64 130 65
f 65 130 131
f 65 131 66
f 66 131 132
f 66 132 67

