# https://github.com/mikedh/trimesh
v 0.00000000 -0.05000000 0.00000000
v 0.01710101 -0.04698463 0.00000000
v 0.01026060 -0.02819078 0.05000000
v 0.00000000 -0.03000000 0.05000000
v 0.00000000 -0.04900000 0.00000000
v 0.01675899 -0.04604494 0.00000000
v 0.00991858 -0.02725109 0.05000000
v 0.00000000 -0.02900000 0.05000000
v 0.03213938 -0.03830222 0.00000000
v 0.01928363 -0.02298133 0.05000000
v 0.03149659 -0.03753618 0.00000000
v 0.01864084 -0.02221529 0.05000000
v 0.04330127 -0.02500000 0.00000000
v 0.02598076 -0.01500000 0.05000000
v 0.04243524 -0.02450000 0.00000000
v 0.02511474 -0.01450000 0.05000000
v 0.04924039 -0.00868241 0.00000000
v 0.02954423 -0.00520945 0.05000000
v 0.04825558 -0.00850876 0.00000000
v 0.02855942 -0.00503580 0.05000000
v 0.04924039 0.00868241 0.00000000
v 0.02954423 0.00520945 0.05000000
v 0.04825558 0.00850876 0.00000000
v 0.02855942 0.00503580 0.05000000
v 0.04330127 0.02500000 0.00000000
v 0.02598076 0.01500000 0.05000000
v 0.04243524 0.02450000 0.00000000
v 0.02511474 0.01450000 0.05000000
v 0.03213938 0.03830222 0.00000000
v 0.01928363 0.02298133 0.05000000
v 0.03149659 0.03753618 0.00000000
v 0.01864084 0.02221529 0.05000000
v 0.01710101 0.04698463 0.00000000
v 0.01026060 0.02819078 0.05000000
v 0.01675899 0.04604494 0.00000000
v 0.00991858 0.02725109 0.05000000
v 0.00000000 0.05000000 0.00000000
v 0.00000000 0.03000000 0.05000000
v 0.00000000 0.04900000 0.00000000
v 0.00000000 0.02900000 0.05000000
f 1 2 3
f 1 3 4
f 5 8 7
f 5 7 6
f 4 3 7
f 4 7 8
f 1 5 6
f 1 6 2
f 2 9 10
f 2 10 3
f 6 7 12
f 6 12 11
f 3 10 12
f 3 12 7
f 2 6 11
f 2 11 9
f 9 13 14
f 9 14 10
f 11 12 16
f 11 16 15
f 10 14 16
f 10 16 12
f 9 11 15
f 9 15 13
f 13 17 18
f 13 18 14
f 15 16 20
f 15 20 19
f 14 18 20
f 14 20 16
f 13 15 19
f 13 19 17
f 17 21 22
f 17 22 18
f 19 20 24
f 19 24 23
f 18 22 24
f 18 24 20
f 17 19 23
f 17 23 21
f 21 25 26
f 21 26 22
f 23 24 28
f 23 28 27
f 22 26 28
f 22 28 24
f 21 23 27
f 21 27 25
f 25 29 30
f 25 30 26
f 27 28 32
f 27 32 31
f 26 30 32
f 26 32 28
f 25 27 31
f 25 31 29
f 29 33 34
f 29 34 30
f 31 32 36
f 31 36 35
f 30 34 36
f 30 36 32
f 29 31 35
f 29 35 33
f 33 37 38
f 33 38 34
f 35 36 40
f 35 40 39
f 34 38 40
f 34 40 36
f 33 35 39
f 33 39 37

