# Blender v2.82 (sub 7) OBJ File: ''
# www.blender.org
mtllib half_funnel1.mtl
o half_funnel.003
v -0.050000 0.000000 -0.000000
v -0.046985 -0.017101 -0.000000
v -0.028191 -0.010261 0.050000
v -0.030000 0.000000 0.050000
v -0.049000 0.000000 -0.000000
v -0.029000 0.000000 0.050000
v -0.027251 -0.009919 0.050000
v -0.046045 -0.016759 -0.000000
v -0.038302 -0.032139 -0.000000
v -0.022981 -0.019284 0.050000
v -0.022215 -0.018641 0.050000
v -0.037536 -0.031497 -0.000000
v -0.025000 -0.043301 -0.000000
v -0.015000 -0.025981 0.050000
v -0.014500 -0.025115 0.050000
v -0.024500 -0.042435 -0.000000
v -0.008682 -0.049240 -0.000000
v -0.005209 -0.029544 0.050000
v -0.005036 -0.028559 0.050000
v -0.008509 -0.048256 -0.000000
v 0.008682 -0.049240 0.000000
v 0.005209 -0.029544 0.050000
v 0.005036 -0.028559 0.050000
v 0.008509 -0.048256 0.000000
v 0.025000 -0.043301 0.000000
v 0.015000 -0.025981 0.050000
v 0.014500 -0.025115 0.050000
v 0.024500 -0.042435 0.000000
v 0.038302 -0.032139 0.000000
v 0.022981 -0.019284 0.050000
v 0.022215 -0.018641 0.050000
v 0.037536 -0.031497 0.000000
v 0.046985 -0.017101 0.000000
v 0.028191 -0.010261 0.050000
v 0.027251 -0.009919 0.050000
v 0.046045 -0.016759 0.000000
v 0.050000 -0.000000 0.000000
v 0.030000 -0.000000 0.050000
v 0.029000 -0.000000 0.050000
v 0.049000 -0.000000 0.000000
vn -0.9163 -0.1616 0.3665
vn 0.9163 0.1616 -0.3665
vn 0.0000 0.0000 1.0000
vn 0.0000 0.0000 -1.0000
vn -0.8058 -0.4652 0.3665
vn 0.8058 0.4652 -0.3665
vn -0.5981 -0.7127 0.3665
vn 0.5981 0.7127 -0.3665
vn -0.3182 -0.8743 0.3665
vn 0.3182 0.8743 -0.3665
vn 0.0000 -0.9304 0.3665
vn 0.0000 0.9304 -0.3665
vn 0.3182 -0.8743 0.3665
vn -0.3182 0.8743 -0.3665
vn 0.5981 -0.7127 0.3665
vn -0.5981 0.7127 -0.3665
vn 0.8058 -0.4652 0.3665
vn -0.8058 0.4652 -0.3665
vn 0.9163 -0.1616 0.3665
vn -0.9163 0.1616 -0.3665
usemtl Default_OBJ.003
s off
f 1//1 2//1 3//1
f 1//1 3//1 4//1
f 5//2 6//2 7//2
f 5//2 7//2 8//2
f 4//3 3//3 7//3
f 4//3 7//3 6//3
f 1//4 5//4 8//4
f 1//4 8//4 2//4
f 2//5 9//5 10//5
f 2//5 10//5 3//5
f 8//6 7//6 11//6
f 8//6 11//6 12//6
f 3//3 10//3 11//3
f 3//3 11//3 7//3
f 2//4 8//4 12//4
f 2//4 12//4 9//4
f 9//7 13//7 14//7
f 9//7 14//7 10//7
f 12//8 11//8 15//8
f 12//8 15//8 16//8
f 10//3 14//3 15//3
f 10//3 15//3 11//3
f 9//4 12//4 16//4
f 9//4 16//4 13//4
f 13//9 17//9 18//9
f 13//9 18//9 14//9
f 16//10 15//10 19//10
f 16//10 19//10 20//10
f 14//3 18//3 19//3
f 14//3 19//3 15//3
f 13//4 16//4 20//4
f 13//4 20//4 17//4
f 17//11 21//11 22//11
f 17//11 22//11 18//11
f 20//12 19//12 23//12
f 20//12 23//12 24//12
f 18//3 22//3 23//3
f 18//3 23//3 19//3
f 17//4 20//4 24//4
f 17//4 24//4 21//4
f 21//13 25//13 26//13
f 21//13 26//13 22//13
f 24//14 23//14 27//14
f 24//14 27//14 28//14
f 22//3 26//3 27//3
f 22//3 27//3 23//3
f 21//4 24//4 28//4
f 21//4 28//4 25//4
f 25//15 29//15 30//15
f 25//15 30//15 26//15
f 28//16 27//16 31//16
f 28//16 31//16 32//16
f 26//3 30//3 31//3
f 26//3 31//3 27//3
f 25//4 28//4 32//4
f 25//4 32//4 29//4
f 29//17 33//17 34//17
f 29//17 34//17 30//17
f 32//18 31//18 35//18
f 32//18 35//18 36//18
f 30//3 34//3 35//3
f 30//3 35//3 31//3
f 29//4 32//4 36//4
f 29//4 36//4 33//4
f 33//19 37//19 38//19
f 33//19 38//19 34//19
f 36//20 35//20 39//20
f 36//20 39//20 40//20
f 34//3 38//3 39//3
f 34//3 39//3 35//3
f 33//4 36//4 40//4
f 33//4 40//4 37//4
