# Blender v2.82 (sub 7) OBJ File: ''
# www.blender.org
mtllib half_funnel3.mtl
o half_funnel.007
v 0.050000 0.000000 -0.000000
v 0.040451 0.029389 -0.000000
v 0.024271 0.017634 0.050000
v 0.030000 0.000000 0.050000
v 0.049000 0.000000 -0.000000
v 0.029000 0.000000 0.050000
v 0.023461 0.017046 0.050000
v 0.039642 0.028801 -0.000000
v 0.015451 0.047553 -0.000000
v 0.009271 0.028532 0.050000
v 0.008961 0.027581 0.050000
v 0.015142 0.046602 -0.000000
v -0.015451 0.047553 0.000000
v -0.009271 0.028532 0.050000
v -0.008961 0.027581 0.050000
v -0.015142 0.046602 0.000000
v -0.040451 0.029389 0.000000
v -0.024271 0.017634 0.050000
v -0.023461 0.017046 0.050000
v -0.039642 0.028801 0.000000
v -0.050000 -0.000000 0.000000
v -0.030000 -0.000000 0.050000
v -0.029000 -0.000000 0.050000
v -0.049000 -0.000000 0.000000
vn 0.8889 0.2888 0.3556
vn -0.8889 -0.2888 -0.3556
vn 0.0000 0.0000 1.0000
vn -0.0000 0.0000 -1.0000
vn 0.5494 0.7561 0.3556
vn -0.5494 -0.7561 -0.3556
vn 0.0000 0.9347 0.3556
vn 0.0000 -0.9347 -0.3556
vn -0.5494 0.7561 0.3556
vn 0.5494 -0.7561 -0.3556
vn -0.8889 0.2888 0.3556
vn 0.8889 -0.2888 -0.3556
usemtl Default_OBJ.007
s off
f 1//1 2//1 3//1
f 1//1 3//1 4//1
f 5//2 6//2 7//2
f 5//2 7//2 8//2
f 4//3 3//3 7//3
f 4//3 7//3 6//3
f 1//4 5//4 8//4
f 1//4 8//4 2//4
f 2//5 9//5 10//5
f 2//5 10//5 3//5
f 8//6 7//6 11//6
f 8//6 11//6 12//6
f 3//3 10//3 11//3
f 3//3 11//3 7//3
f 2//4 8//4 12//4
f 2//4 12//4 9//4
f 9//7 13//7 14//7
f 9//7 14//7 10//7
f 12//8 11//8 15//8
f 12//8 15//8 16//8
f 10//3 14//3 15//3
f 10//3 15//3 11//3
f 9//4 12//4 16//4
f 9//4 16//4 13//4
f 13//9 17//9 18//9
f 13//9 18//9 14//9
f 16//10 15//10 19//10
f 16//10 19//10 20//10
f 14//3 18//3 19//3
f 14//3 19//3 15//3
f 13//4 16//4 20//4
f 13//4 20//4 17//4
f 17//11 21//11 22//11
f 17//11 22//11 18//11
f 20//12 19//12 23//12
f 20//12 23//12 24//12
f 18//3 22//3 23//3
f 18//3 23//3 19//3
f 17//4 20//4 24//4
f 17//4 24//4 21//4
