# https://github.com/mikedh/trimesh
v 0.00000000 -0.05000000 0.00000000
v 0.02938926 -0.04045085 0.00000000
v 0.01763356 -0.02427051 0.05000000
v 0.00000000 -0.03000000 0.05000000
v 0.00000000 -0.04900000 0.00000000
v 0.02880148 -0.03964183 0.00000000
v 0.01704577 -0.02346149 0.05000000
v 0.00000000 -0.02900000 0.05000000
v 0.04755283 -0.01545085 0.00000000
v 0.02853170 -0.00927051 0.05000000
v 0.04660177 -0.01514183 0.00000000
v 0.02758064 -0.00896149 0.05000000
v 0.04755283 0.01545085 0.00000000
v 0.02853170 0.00927051 0.05000000
v 0.04660177 0.01514183 0.00000000
v 0.02758064 0.00896149 0.05000000
v 0.02938926 0.04045085 0.00000000
v 0.01763356 0.02427051 0.05000000
v 0.02880148 0.03964183 0.00000000
v 0.01704577 0.02346149 0.05000000
v 0.00000000 0.05000000 0.00000000
v 0.00000000 0.03000000 0.05000000
v 0.00000000 0.04900000 0.00000000
v 0.00000000 0.02900000 0.05000000
f 1 2 3
f 1 3 4
f 5 8 7
f 5 7 6
f 4 3 7
f 4 7 8
f 1 5 6
f 1 6 2
f 2 9 10
f 2 10 3
f 6 7 12
f 6 12 11
f 3 10 12
f 3 12 7
f 2 6 11
f 2 11 9
f 9 13 14
f 9 14 10
f 11 12 16
f 11 16 15
f 10 14 16
f 10 16 12
f 9 11 15
f 9 15 13
f 13 17 18
f 13 18 14
f 15 16 20
f 15 20 19
f 14 18 20
f 14 20 16
f 13 15 19
f 13 19 17
f 17 21 22
f 17 22 18
f 19 20 24
f 19 24 23
f 18 22 24
f 18 24 20
f 17 19 23
f 17 23 21

